<svg width="114" height="51" viewBox="0 0 114 51" fill="none" xmlns="http://www.w3.org/2000/svg">
<path d="M112.946 25.5C112.946 27.9399 111.495 30.34 108.696 32.593C105.903 34.8424 101.83 36.8902 96.752 38.6194C86.6018 42.0762 72.5473 44.2231 56.9999 44.2231C41.4525 44.2231 27.398 42.0762 17.2478 38.6194C12.1702 36.8902 8.09704 34.8424 5.30333 32.593C2.50513 30.34 1.05396 27.9399 1.05396 25.5C1.05396 23.0601 2.50513 20.6599 5.30333 18.4069C8.09704 16.1575 12.1702 14.1097 17.2478 12.3805C27.398 8.92375 41.4525 6.77686 56.9999 6.77686C72.5473 6.77686 86.6018 8.92375 96.752 12.3805C101.83 14.1097 105.903 16.1575 108.696 18.4069C111.495 20.6599 112.946 23.0601 112.946 25.5Z" stroke="#EF3D1E"/>
<path d="M112.84 31.7583C112.756 34.192 111.226 36.425 108.355 38.361C105.489 40.2937 101.352 41.8821 96.2247 43.0401C85.9743 45.3548 71.8723 45.9255 56.3545 44.1863C40.8367 42.4471 26.8829 38.7321 16.8709 34.1464C11.8625 31.8524 7.86752 29.3528 5.15654 26.795C2.44094 24.2328 1.07614 21.6754 1.16025 19.2417C1.24435 16.808 2.77471 14.575 5.64576 12.639C8.51193 10.7063 12.6482 9.1179 17.7759 7.95994C28.0263 5.64515 42.1283 5.07454 57.6461 6.81371C73.1639 8.55288 87.1178 12.2679 97.1297 16.8536C102.138 19.1476 106.133 21.6472 108.844 24.205C111.56 26.7672 112.924 29.3246 112.84 31.7583Z" stroke="#EF3D1E"/>
</svg>
